# Max2Obj Version 4.0 Mar 10th, 2001
#
mtllib ./plane.mtl
g
# object Plane01 to come ...
#
v  -122.273788 0.000000 95.150818
v  122.273788 0.000000 95.150818
v  -122.273788 0.000000 -75.150818
v  122.273788 0.000000 -75.150818
# 4 vertices

vt  0.000000 0.000000 0.000000
vt  1.000000 0.000000 0.000000
vt  0.000000 0.000000 0.000000
vt  1.000000 0.000000 0.000000
vt  0.000000 0.000000 0.000000
vt  1.000000 0.000000 0.000000
vt  0.000000 1.000000 0.000000
vt  1.000000 1.000000 0.000000
# 8 texture vertices

vn  0.000000 1.000000 -0.000000
vn  0.000000 1.000000 -0.000000
vn  0.000000 1.000000 -0.000000
vn  0.000000 1.000000 -0.000000
# 4 vertex normals

g Plane01
usemtl 01_-_Default
s 1
f 3/7/3 1/5/1 4/8/4
f 2/6/2 4/8/4 1/5/1
# 2 faces

g
